<?xml version="1.0" encoding="utf-8"?>
<!-- Generator: Adobe Illustrator 25.4.1, SVG Export Plug-In . SVG Version: 6.00 Build 0)  -->
<svg version="1.1" id="Capa_1" xmlns="http://www.w3.org/2000/svg" xmlns:xlink="http://www.w3.org/1999/xlink" x="0px" y="0px"
	 viewBox="0 0 200 30.99" style="enable-background:new 0 0 200 30.99;" xml:space="preserve">
<style type="text/css">
	.st0{fill:#BA1818;}
</style>
<g>
	<path class="st0" d="M0,30.99V0h6.42c2.37,0,4.16,1.07,5.35,3.2l2.14,4.27l2.14-4.27C17.24,1.07,19.03,0,21.4,0h6.42v30.99h-4.28
		V4.27h-1.07c-1.42,0-2.5,0.71-3.21,2.14l-5.35,11.75L8.56,6.41C7.85,4.98,6.78,4.27,5.35,4.27H4.28v26.71H0L0,30.99z M5.35,30.99
		V5.34c0.71,0,1.19,0.24,1.42,0.71l7.14,15.32l7.14-15.32c0.24-0.47,0.71-0.71,1.42-0.71v25.65h-4.28v-9.62l-4.28,9.62l-4.28-9.62
		v9.62H5.35L5.35,30.99z"/>
	<path class="st0" d="M54.58,10.15c0,2.8-0.72,4.92-2.16,6.36c-1.44,1.43-2.66,2.4-3.66,2.9l5.81,11.58H50.3l-7.49-14.96h2.14
		c1.26,0,2.47-0.58,3.62-1.73c1.15-1.15,1.73-2.53,1.73-4.15c0-1.59-0.58-2.97-1.73-4.13c-1.16-1.16-2.36-1.74-3.62-1.74H29.97V0
		h14.98c2.45,0,4.67,1,6.65,2.99C53.59,4.98,54.58,7.37,54.58,10.15L54.58,10.15z M49.23,10.15c0,1.33-0.47,2.46-1.41,3.4
		c-0.94,0.94-1.9,1.4-2.87,1.4h-10.7v16.03h-4.28v-20.3h13.91c0.71,0,1.07-0.18,1.07-0.53c0-0.36-0.36-0.54-1.07-0.54H29.97V5.34
		h14.98c0.97,0,1.93,0.47,2.87,1.42C48.76,7.72,49.23,8.84,49.23,10.15L49.23,10.15z M49.23,30.99h-4.28L39.6,20.3v10.69h-4.28
		V16.03h6.42L49.23,30.99L49.23,30.99z"/>
	<polygon class="st0" points="55.85,25.76 60.97,25.76 60.97,30.99 55.85,30.99 55.85,25.76 	"/>
	<path class="st0" d="M97.78,10.15c0,2.8-0.72,4.92-2.16,6.36c-1.44,1.43-2.66,2.4-3.66,2.9l5.81,11.58H93.5l-7.49-14.96h2.14
		c1.26,0,2.47-0.58,3.62-1.73c1.15-1.15,1.73-2.53,1.73-4.15c0-1.59-0.58-2.97-1.73-4.13c-1.16-1.16-2.36-1.74-3.62-1.74H73.16V0
		h14.98c2.45,0,4.67,1,6.65,2.99C96.78,4.98,97.78,7.37,97.78,10.15L97.78,10.15z M92.42,10.15c0,1.33-0.47,2.46-1.41,3.4
		c-0.94,0.94-1.9,1.4-2.87,1.4h-10.7v16.03h-4.28v-20.3h13.91c0.71,0,1.07-0.18,1.07-0.53c0-0.36-0.36-0.54-1.07-0.54H73.16V5.34
		h14.98c0.97,0,1.93,0.47,2.87,1.42C91.96,7.72,92.42,8.84,92.42,10.15L92.42,10.15z M92.42,30.99h-4.28L82.79,20.3v10.69h-4.28
		V16.03h6.42L92.42,30.99L92.42,30.99z"/>
	<path class="st0" d="M123.46,9.62v11.76c0,6.41-3.21,9.62-9.63,9.62h-4.28c-6.42,0-9.63-3.2-9.63-9.62V9.62
		c0-6.41,3.21-9.62,9.63-9.62h4.28C120.25,0,123.46,3.2,123.46,9.62L123.46,9.62z M118.11,9.62v11.76c0,2.85-1.42,4.27-4.28,4.27
		h-4.28c-2.86,0-4.28-1.42-4.28-4.27V9.62c0-2.85,1.42-4.27,4.28-4.27h4.28C116.69,5.34,118.11,6.77,118.11,9.62L118.11,9.62z
		 M119.18,9.62c0-3.56-1.78-5.34-5.35-5.34h-4.28c-3.57,0-5.35,1.78-5.35,5.34v11.76c0,3.56,1.78,5.34,5.35,5.34h4.28
		c3.57,0,5.35-1.78,5.35-5.34V9.62L119.18,9.62z M113.83,10.69c0-0.71-0.36-1.07-1.07-1.07h-2.14c-0.71,0-1.07,0.36-1.07,1.07v9.62
		c0,0.71,0.36,1.07,1.07,1.07h2.14c0.71,0,1.07-0.36,1.07-1.07V10.69L113.83,10.69z"/>
	<path class="st0" d="M147.73,10.15c0,2.07-0.49,3.86-1.46,5.38c0.97,1.52,1.46,3.29,1.46,5.31c0,2.78-0.99,5.17-2.98,7.16
		c-1.98,1.99-4.21,2.99-6.65,2.99h-11.52v-4.27h11.52c1.26,0,2.47-0.58,3.62-1.74c1.15-1.16,1.73-2.54,1.73-4.13
		c0-2.18-1.02-3.95-3.07-5.31c2.12-1.38,3.14-3.17,3.07-5.38c0-1.59-0.58-2.97-1.73-4.13c-1.15-1.16-2.36-1.74-3.62-1.74h-11.52V0
		h11.52c2.45,0,4.67,1,6.65,2.99C146.74,4.98,147.73,7.37,147.73,10.15L147.73,10.15z M130.1,20.3v1.07h6.94
		c0.71,0,1.07-0.18,1.07-0.53c0-0.36-0.36-0.54-1.07-0.54H130.1L130.1,20.3z M126.59,16.03h11.52c0.97,0,1.93,0.47,2.87,1.4
		c0.94,0.94,1.41,2.07,1.41,3.4c0,1.31-0.47,2.43-1.41,3.39c-0.94,0.95-1.9,1.42-2.87,1.42h-11.52
		C126.59,22.44,126.59,19.23,126.59,16.03L126.59,16.03z M130.1,9.62v1.07h6.94c0.71,0,1.07-0.18,1.07-0.53
		c0-0.36-0.36-0.54-1.07-0.54H130.1L130.1,9.62z M126.59,5.34h11.52c0.97,0,1.93,0.47,2.87,1.42c0.94,0.95,1.41,2.08,1.41,3.39
		c0,1.33-0.47,2.46-1.41,3.4c-0.94,0.94-1.9,1.4-2.87,1.4h-11.52C126.59,11.75,126.59,8.55,126.59,5.34L126.59,5.34z"/>
	<path class="st0" d="M173.29,9.62v11.76c0,6.41-3.21,9.62-9.63,9.62h-4.28c-6.42,0-9.63-3.2-9.63-9.62V9.62
		c0-6.41,3.21-9.62,9.63-9.62h4.28C170.08,0,173.29,3.2,173.29,9.62L173.29,9.62z M167.94,9.62v11.76c0,2.85-1.42,4.27-4.28,4.27
		h-4.28c-2.86,0-4.28-1.42-4.28-4.27V9.62c0-2.85,1.42-4.27,4.28-4.27h4.28C166.52,5.34,167.94,6.77,167.94,9.62L167.94,9.62z
		 M169.01,9.62c0-3.56-1.78-5.34-5.35-5.34h-4.28c-3.57,0-5.35,1.78-5.35,5.34v11.76c0,3.56,1.78,5.34,5.35,5.34h4.28
		c3.57,0,5.35-1.78,5.35-5.34V9.62L169.01,9.62z M163.66,10.69c0-0.71-0.36-1.07-1.07-1.07h-2.14c-0.71,0-1.07,0.36-1.07,1.07v9.62
		c0,0.71,0.36,1.07,1.07,1.07h2.14c0.71,0,1.07-0.36,1.07-1.07V10.69L163.66,10.69z"/>
	<path class="st0" d="M175.38,0v4.27h24.61V0H175.38L175.38,0z M175.38,5.34v4.27h7.49v21.37h4.28V5.34H175.38L175.38,5.34z
		 M188.23,30.99h4.28V9.62H200V5.34h-11.77V30.99L188.23,30.99z"/>
</g>
</svg>
